# xmcd
#
# Track frame offsets:
#	150
#	15810
#	29994
#	47807
#	59712
#	76905
#	94270
#	113400
#	126204
#	140425
#	158347
#	173327
#	188359
#	203850
#	220672
#
# Disc length: 3172 seconds
#
# Revision: 1
# Processed by: cddbd v1.5.1PL2 Copyright (c) Steve Scherf et al.
# Submitted via: audiograbber 1.83.01
#
DISCID=ba0c620f
DTITLE=Various Artist - SC8234
DYEAR=1900
DGENRE=Karaoke
TTITLE0=Alison Krauss - Every Time You Say Goodbye
TTITLE1=Alan Jackson - Love's Got A Hold On You
TTITLE2=Blackhawk - Every Once In A While
TTITLE3=Garth Brooks - Against The Grain
TTITLE4=Lorrie Morgan - Half Enough
TTITLE5=Joe Diffie - Next Thing Smokin'
TTITLE6=Reba McEntire - If I Had Only Known
TTITLE7=Chris LeDoux - Whatcha Gonna Do With A Cowboy
TTITLE8=Randy Travis - An Old Pair Of Shoes
TTITLE9=Martina McBride - That Wasn't Me
TTITLE10=Ricky Van Shelton - Lola's Love
TTITLE11=Suzy Bogguss - Drive South
TTITLE12=Hal Ketchum - Five O'Clock World
TTITLE13=Willie Nelson - Healing Hands Of Time
TTITLE14=Travis Tritt - Ten Feet Tall And Bulletproof
EXTD=
EXTT0=
EXTT1=
EXTT2=
EXTT3=
EXTT4=
EXTT5=
EXTT6=
EXTT7=
EXTT8=
EXTT9=
EXTT10=
EXTT11=
EXTT12=
EXTT13=
EXTT14=
PLAYORDER=
